<?xml version="1.0" standalone="no"?>
<!DOCTYPE svg PUBLIC "-//W3C//DTD SVG 20010904//EN"
 "http://www.w3.org/TR/2001/REC-SVG-20010904/DTD/svg10.dtd">
<svg version="1.0" xmlns="http://www.w3.org/2000/svg"
 width="272.000000pt" height="68.000000pt" viewBox="0 0 272.000000 68.000000"
 preserveAspectRatio="xMidYMid meet">
<metadata>
Created by potrace 1.15, written by Peter Selinger 2001-2017
</metadata>
<g transform="translate(0.000000,68.000000) scale(0.100000,-0.100000)"
fill="#000000" stroke="none">
<path d="M270 651 c-90 -29 -168 -96 -211 -179 -20 -40 -24 -61 -24 -142 0
-111 21 -167 89 -235 36 -36 120 -85 145 -85 14 0 22 29 15 56 -5 20 -13 24
-41 24 -35 0 -51 13 -101 79 -33 44 -5 41 38 -4 42 -43 95 -49 109 -13 11 30
8 34 -30 42 -79 16 -129 120 -95 200 9 21 16 56 16 78 0 46 16 56 62 37 43
-17 205 -19 240 -2 15 7 36 13 48 13 17 0 20 -6 20 -42 1 -24 7 -54 15 -68 19
-33 19 -104 -1 -145 -18 -38 -46 -60 -95 -73 -22 -6 -32 -14 -29 -23 2 -8 6
-45 8 -82 2 -46 8 -70 17 -74 21 -8 112 46 152 90 59 65 87 140 88 227 0 66
-5 85 -33 143 -59 120 -154 179 -292 184 -47 1 -96 -1 -110 -6z"/>
<path d="M945 538 c-50 -29 -80 -74 -94 -139 -34 -159 19 -299 124 -328 58
-16 148 -13 195 5 l40 16 0 129 0 129 -86 0 -85 0 3 -47 c3 -46 4 -48 36 -51
32 -3 33 -4 30 -45 l-3 -42 -46 -3 c-38 -2 -50 1 -71 23 -59 59 -49 217 16
260 19 13 43 16 98 13 l72 -3 9 38 c13 55 2 62 -106 65 -81 2 -97 0 -132 -20z"/>
<path d="M2395 538 c-3 -7 -4 -115 -3 -238 l3 -225 34 -3 c18 -2 38 1 43 6 6
6 19 5 36 -4 32 -17 102 -18 135 -3 82 37 90 264 11 316 -19 12 -40 14 -89 11
l-64 -6 -3 77 -3 76 -48 3 c-32 2 -49 -1 -52 -10z m189 -234 c17 -17 22 -118
7 -142 -5 -8 -23 -12 -47 -10 l-39 3 -3 77 c-2 66 0 77 15 81 35 9 52 7 67 -9z"/>
<path d="M1660 304 l0 -235 53 3 52 3 3 98 3 97 64 0 65 0 0 -100 0 -100 55 0
55 0 0 235 0 235 -55 0 -55 0 0 -85 0 -85 -65 0 -65 0 0 85 0 85 -55 0 -55 0
0 -236z"/>
<path d="M1450 445 c0 -43 -3 -48 -30 -58 -25 -9 -30 -17 -30 -44 0 -27 4 -32
28 -35 l27 -3 5 -98 c5 -93 7 -100 34 -123 23 -21 37 -24 79 -22 46 3 51 6 58
31 11 40 2 55 -34 59 l-32 3 -3 78 -3 77 36 0 c34 0 35 1 35 39 0 37 -2 40
-32 43 -31 3 -33 6 -38 48 l-5 45 -47 3 -48 3 0 -46z"/>
<path d="M1260 230 l0 -160 50 0 50 0 0 160 0 160 -50 0 -50 0 0 -160z"/>
<path d="M2050 266 c0 -69 4 -136 10 -150 15 -41 64 -60 129 -51 31 4 80 7
109 6 l52 -2 0 161 0 160 -50 0 -50 0 0 -115 c0 -115 0 -116 -26 -125 -34 -13
-40 -13 -58 6 -13 12 -16 39 -16 125 l0 109 -50 0 -50 0 0 -124z"/>
</g>
</svg>
