<?xml version="1.0" standalone="no"?>
<!DOCTYPE svg PUBLIC "-//W3C//DTD SVG 20010904//EN"
 "http://www.w3.org/TR/2001/REC-SVG-20010904/DTD/svg10.dtd">
<svg version="1.0" xmlns="http://www.w3.org/2000/svg"
 width="64.000000pt" height="64.000000pt" viewBox="0 0 64.000000 64.000000"
 preserveAspectRatio="xMidYMid meet">

<g transform="translate(0.000000,64.000000) scale(0.100000,-0.100000)"
fill="#000000" stroke="none">
<path d="M0 613 c0 -21 3 -24 9 -13 6 8 7 18 4 24 -3 5 -1 6 5 2 6 -3 13 -2
17 4 3 5 -3 10 -14 10 -16 0 -21 -6 -21 -27z"/>
<path d="M125 630 c4 -6 10 -8 14 -6 9 6 13 -11 13 -64 0 -73 1 -72 -72 -72
-51 0 -70 4 -65 12 2 3 0 12 -5 20 -5 9 -8 -95 -7 -255 l1 -270 3 217 3 216
73 4 72 3 -3 -218 -3 -217 41 0 41 0 -3 217 -3 218 71 0 c69 0 70 0 66 -25
l-3 -25 19 22 c11 12 22 19 26 16 3 -4 6 -1 6 5 0 7 27 10 76 9 70 -1 78 -3
108 -31 17 -17 30 -34 28 -38 -2 -5 2 -8 7 -8 7 0 11 48 11 140 l0 140 -261 0
c-174 0 -258 -3 -254 -10z m486 -227 c13 -16 12 -17 -3 -4 -17 13 -22 21 -14
21 2 0 10 -8 17 -17z"/>
<path d="M388 289 c-9 -10 -14 -20 -10 -23 3 -3 0 -6 -6 -6 -9 0 -12 -38 -12
-130 l0 -130 70 0 71 0 -2 139 c-1 115 -4 140 -17 152 -24 20 -74 19 -94 -2z"/>
</g>
</svg>
