<svg width="48" height="48" viewBox="0 0 48 48" xmlns="http://www.w3.org/2000/svg">
    <path d="M33.229 20.221A7.389 7.389 0 0 1 34 23.5c0 3.485-2.467 6.48-5.997 7.792.167 1.282.419 3.112.579 3.818.451 1.989 1.039 3.29 1.36 3.75C35.838 36.5 40 30.737 40 24c0-8.837-7.163-16-16-16S8 15.163 8 24c0 6.759 4.19 12.539 10.116 14.883.082-.1.207-.277.37-.572.41-.746.773-1.867 1.064-3.243.025-.12.054-.27.086-.44a6.1 6.1 0 0 1-2.071.343c-1.95 0-3.585-.772-4.87-2.021-.75-.73-1.238-1.46-1.508-2.017a2 2 0 0 1 3.599-1.746c.083.171.323.532.697.894.586.57 1.262.89 2.082.89.501 0 .825-.103 1.063-.3C15.845 29.16 14 26.514 14 23.5c0-1.144.266-2.235.748-3.23l-.699-4.767c-.16-1.098.569-1.715 1.629-1.388l4.718 1.454A11.546 11.546 0 0 1 24 15c1.265 0 2.475.2 3.59.564l4.702-1.45c1.06-.326 1.79.29 1.628 1.389l-.691 4.718zM24.019 32c-.151 1.285-.382 3.071-.555 3.895-.33 1.56-.734 2.912-1.255 4.006a16.175 16.175 0 0 0 3.724-.017c-.505-1.068-.91-2.38-1.252-3.889-.17-.75-.428-2.586-.613-3.995h-.05zm6.178 11.022v.024h-.077c-1.929.62-3.985.954-6.12.954-11.046 0-20-8.954-20-20S12.954 4 24 4s20 8.954 20 20c0 8.883-5.79 16.413-13.803 19.022zM18 25a3 3 0 0 0 2.997 3h6.006a3 3 0 0 0 0-6h-6.006A2.998 2.998 0 0 0 18 25z" fill="#4D4D4D" fill-rule="evenodd"/>
    <path d="M34 23.5c0 3.485-2.467 6.48-5.997 7.792.167 1.282.419 3.112.579 3.818.451 1.989 1.039 3.29 1.36 3.75C35.838 36.5 40 30.737 40 24c0-8.837-7.163-16-16-16S8 15.163 8 24c0 6.759 4.19 12.539 10.116 14.883.082-.1.207-.277.37-.572.41-.746.773-1.867 1.064-3.243.025-.12.054-.27.086-.44a6.1 6.1 0 0 1-2.071.343c-1.95 0-3.585-.772-4.87-2.021-.75-.73-1.238-1.46-1.508-2.017a2 2 0 0 1 3.599-1.746c.083.171.323.532.697.894.586.57 1.262.89 2.082.89.501 0 .825-.103 1.063-.3C15.845 29.16 14 26.514 14 23.5c0-1.144.266-2.235.748-3.23l-.699-4.767c-.16-1.098.569-1.715 1.629-1.388l4.718 1.454A11.546 11.546 0 0 1 24 15c1.265 0 2.475.2 3.59.564l4.702-1.45c1.06-.326 1.79.29 1.628 1.389l-.691 4.718A7.389 7.389 0 0 1 34 23.5zM23.464 35.895c-.33 1.56-.734 2.912-1.255 4.006a16.175 16.175 0 0 0 3.724-.017c-.505-1.068-.91-2.38-1.252-3.889-.17-.75-.428-2.586-.613-3.995h-.05c-.15 1.285-.38 3.071-.554 3.895zM24 44C12.954 44 4 35.046 4 24S12.954 4 24 4s20 8.954 20 20c0 8.883-5.79 16.413-13.803 19.022A20.11 20.11 0 0 1 24 44zm-6-19a3 3 0 0 0 2.997 3h6.006a3 3 0 0 0 0-6h-6.006A2.998 2.998 0 0 0 18 25z" fill="#000" fill-rule="evenodd"/>
</svg>
