<svg width="48" height="48" viewBox="0 0 48 48" xmlns="http://www.w3.org/2000/svg">
    <path d="M4 38.01V9.99A5.99 5.99 0 0 1 9.99 4h28.02A5.99 5.99 0 0 1 44 9.99v28.02A5.99 5.99 0 0 1 38.01 44H9.99A5.99 5.99 0 0 1 4 38.01zM9.99 8C8.89 8 8 8.89 8 9.99v28.02c0 1.1.89 1.99 1.99 1.99h28.02c1.1 0 1.99-.89 1.99-1.99V9.99C40 8.89 39.11 8 38.01 8H9.99zM14 22.006c0-1.108.888-2.006 2-2.006 1.105 0 2 .897 2 2.006v9.988A1.998 1.998 0 0 1 16 34c-1.105 0-2-.897-2-2.006v-9.988zM16 18a2 2 0 1 1 0-4 2 2 0 0 1 0 4zm9 8.5V32a2 2 0 1 1-4 0v-5.5c0-3.588 2.914-6.5 6.5-6.5 3.588 0 6.5 2.916 6.5 6.5V32a2 2 0 1 1-4 0v-5.5c0-1.376-1.123-2.5-2.5-2.5a2.503 2.503 0 0 0-2.5 2.5z" fill-rule="nonzero" fill="#000"/>
</svg>
