<?xml version="1.0" encoding="utf-8"?><svg width="365" height="224" viewBox="0 0 365 224" xmlns="http://www.w3.org/2000/svg" xmlns:xlink="http://www.w3.org/1999/xlink"><svg id="comment" data-name="Layer 1" width="66" height="66" viewBox="-1 -1 66 66" x="87.33" y="92.67" xmlns="http://www.w3.org/2000/svg"><defs><style>.acls-1{fill:#2f5572}</style></defs><title>comment</title><path class="acls-1" d="M.72.08A.67.67 0 0 0 0 .8v46.48a.72.72 0 0 0 .72.72H48l16 16V.72a.67.67 0 0 0-.72-.72H.8z"/></svg><svg id="facebook" data-name="Layer 1" width="23.23" height="44.01" viewBox="-1 -1 23.23 44.01" x="273.11" y="92.67" xmlns="http://www.w3.org/2000/svg"><defs><style>.bcls-1{fill:#fff}</style></defs><title>facebook</title><path class="bcls-1" d="M21.23.31V7H17.4a3.55 3.55 0 0 0-2.85.91 4.26 4.26 0 0 0-.74 2.72v4.77H21l-1 7.47h-6.19V42H6.27V22.85H0v-7.47h6.27V9.85q0-4.69 2.55-7.28A9 9 0 0 1 15.63 0a39.57 39.57 0 0 1 5.6.31z"/></svg><svg version="1" width="364.67" height="92.67" viewBox="-1 -1 274 70" id="github" xmlns="http://www.w3.org/2000/svg"><g transform="matrix(.1 0 0 -.1 0 68)"><path d="M270 651c-90-29-168-96-211-179-20-40-24-61-24-142 0-111 21-167 89-235 36-36 120-85 145-85 14 0 22 29 15 56-5 20-13 24-41 24-35 0-51 13-101 79-33 44-5 41 38-4 42-43 95-49 109-13 11 30 8 34-30 42-79 16-129 120-95 200 9 21 16 56 16 78 0 46 16 56 62 37 43-17 205-19 240-2 15 7 36 13 48 13 17 0 20-6 20-42 1-24 7-54 15-68 19-33 19-104-1-145-18-38-46-60-95-73-22-6-32-14-29-23 2-8 6-45 8-82 2-46 8-70 17-74 21-8 112 46 152 90 59 65 87 140 88 227 0 66-5 85-33 143-59 120-154 179-292 184-47 1-96-1-110-6zM945 538c-50-29-80-74-94-139-34-159 19-299 124-328 58-16 148-13 195 5l40 16v258h-171l3-47c3-46 4-48 36-51s33-4 30-45l-3-42-46-3c-38-2-50 1-71 23-59 59-49 217 16 260 19 13 43 16 98 13l72-3 9 38c13 55 2 62-106 65-81 2-97 0-132-20zM2395 538c-3-7-4-115-3-238l3-225 34-3c18-2 38 1 43 6 6 6 19 5 36-4 32-17 102-18 135-3 82 37 90 264 11 316-19 12-40 14-89 11l-64-6-3 77-3 76-48 3c-32 2-49-1-52-10zm189-234c17-17 22-118 7-142-5-8-23-12-47-10l-39 3-3 77c-2 66 0 77 15 81 35 9 52 7 67-9zM1660 304V69l53 3 52 3 3 98 3 97h129V70h110v470h-110V370h-130v170h-110V304zM1450 445c0-43-3-48-30-58-25-9-30-17-30-44s4-32 28-35l27-3 5-98c5-93 7-100 34-123 23-21 37-24 79-22 46 3 51 6 58 31 11 40 2 55-34 59l-32 3-3 78-3 77h36c34 0 35 1 35 39 0 37-2 40-32 43-31 3-33 6-38 48l-5 45-47 3-48 3v-46zM1260 230V70h100v320h-100V230zM2050 266c0-69 4-136 10-150 15-41 64-60 129-51 31 4 80 7 109 6l52-2v321h-100V275c0-115 0-116-26-125-34-13-40-13-58 6-13 12-16 39-16 125v109h-100V266z"/></g></svg><svg id="instagram" data-name="Layer 1" width="44.01" height="44.01" viewBox="-1 -1 44.01 44.01" x="296.34000000000003" y="92.67" xmlns="http://www.w3.org/2000/svg"><defs><style>.dcls-1{fill:#fff}</style></defs><title>instagram</title><path class="dcls-1" d="M37.25 35.49V17.77h-3.69a11.77 11.77 0 0 1 .57 3.58 12.12 12.12 0 0 1-1.75 6.36 12.76 12.76 0 0 1-4.76 4.59 13.13 13.13 0 0 1-6.56 1.7 12.78 12.78 0 0 1-9.19-3.71 12 12 0 0 1-3.83-9 11.77 11.77 0 0 1 .49-3.56H4.68v17.76a1.63 1.63 0 0 0 1.6 1.67h29.3a1.63 1.63 0 0 0 1.17-.47 1.59 1.59 0 0 0 .5-1.2zm-7.77-14.57A7.75 7.75 0 0 0 27 15.14a8.28 8.28 0 0 0-6-2.4 8.25 8.25 0 0 0-5.91 2.39 7.75 7.75 0 0 0-2.47 5.78 7.75 7.75 0 0 0 2.47 5.79A8.25 8.25 0 0 0 21 29.1a8.28 8.28 0 0 0 6-2.4 7.75 7.75 0 0 0 2.48-5.78zm7.76-9.84V6.56a1.84 1.84 0 0 0-.54-1.31 1.8 1.8 0 0 0-1.31-.56h-4.78a1.8 1.8 0 0 0-1.31.56 1.84 1.84 0 0 0-.54 1.31v4.52A1.87 1.87 0 0 0 30.6 13h4.8a1.87 1.87 0 0 0 1.85-1.89zM42 5.39v31.23A5.41 5.41 0 0 1 36.62 42H5.39a5.19 5.19 0 0 1-3.8-1.59A5.19 5.19 0 0 1 0 36.62V5.39a5.19 5.19 0 0 1 1.59-3.8A5.19 5.19 0 0 1 5.39 0h31.23a5.19 5.19 0 0 1 3.8 1.59A5.19 5.19 0 0 1 42 5.39z"/></svg><svg version="1" width="87.33" height="87.33" viewBox="-1 -1 66 66" id="linkedin" y="92.67" xmlns="http://www.w3.org/2000/svg"><g transform="matrix(.1 0 0 -.1 0 64)"><path d="M0 613c0-21 3-24 9-13 6 8 7 18 4 24-3 5-1 6 5 2 6-3 13-2 17 4 3 5-3 10-14 10-16 0-21-6-21-27zM125 630c4-6 10-8 14-6 9 6 13-11 13-64 0-73 1-72-72-72-51 0-70 4-65 12 2 3 0 12-5 20-5 9-8-95-7-255L4-5l3 217 3 216 73 4 72 3-3-218-3-217h82l-3 217-3 218h71c69 0 70 0 66-25l-3-25 19 22c11 12 22 19 26 16 3-4 6-1 6 5 0 7 27 10 76 9 70-1 78-3 108-31 17-17 30-34 28-38-2-5 2-8 7-8 7 0 11 48 11 140v140H379c-174 0-258-3-254-10zm486-227c13-16 12-17-3-4-17 13-22 21-14 21 2 0 10-8 17-17z"/><path d="M388 289c-9-10-14-20-10-23 3-3 0-6-6-6-9 0-12-38-12-130V0h141l-2 139c-1 115-4 140-17 152-24 20-74 19-94-2z"/></g></svg><svg id="mail" data-name="Layer 1" width="66" height="50" viewBox="-1 -1 66 50" x="153.32999999999998" y="92.67" xmlns="http://www.w3.org/2000/svg"><defs><style>.fcls-1{fill:#2f5572}</style></defs><title>mail</title><path class="fcls-1" d="M0 0v8l32 16L64 8V0H0zm0 16v32h64V16L32 32z"/></svg><svg id="twitter" data-name="Layer 1" width="53.78" height="44.06" viewBox="-1 -1 53.78 44.06" x="219.32999999999998" y="92.67" xmlns="http://www.w3.org/2000/svg"><defs><style>.gcls-1{fill:#fff}</style></defs><title>twitter</title><path class="gcls-1" d="M51.78 5a22.23 22.23 0 0 1-5.32 5.52v1.38a30.15 30.15 0 0 1-1.25 8.53 30.81 30.81 0 0 1-3.76 8.13 32.1 32.1 0 0 1-6.06 6.92 27 27 0 0 1-8.48 4.8 31 31 0 0 1-10.62 1.8A29.47 29.47 0 0 1 0 37.29a22.71 22.71 0 0 0 2.56.13 20.78 20.78 0 0 0 13.17-4.53 10.63 10.63 0 0 1-9.92-7.36 13.45 13.45 0 0 0 2 .16 11 11 0 0 0 2.79-.36 10.44 10.44 0 0 1-6.09-3.67 10.25 10.25 0 0 1-2.41-6.75v-.13a10.52 10.52 0 0 0 4.8 1.34 10.6 10.6 0 0 1-3.45-3.78 10.34 10.34 0 0 1-1.28-5.07 10.4 10.4 0 0 1 1.45-5.33 30.08 30.08 0 0 0 9.71 7.83A29.57 29.57 0 0 0 25.53 13a11.79 11.79 0 0 1-.26-2.43 10.23 10.23 0 0 1 3-7.48 10.64 10.64 0 0 1 15 0l.21.22A20.81 20.81 0 0 0 50.33.8a10.3 10.3 0 0 1-4.67 5.85A21.14 21.14 0 0 0 51.78 5z"/></svg><svg id="youtube" data-name="Layer 1" width="36.75" height="44" viewBox="-1 -1 36.75 44" y="180" xmlns="http://www.w3.org/2000/svg"><defs><style>.hcls-1{fill:#fff}</style></defs><title>youtube</title><path class="hcls-1" d="M22.13 29.15v5q0 1.57-.91 1.57a1.5 1.5 0 0 1-1.06-.52v-7.11a1.5 1.5 0 0 1 1.06-.54q.91 0 .91 1.6zm7.92 0v1.08h-2.1v-1.06q0-1.59 1.06-1.59t1 1.59zM7.42 24h2.5v-2.14h-7.3v2.2h2.46V37.4h2.34V24zm6.75 13.4h2.09V25.82h-2.09v8.86a1.86 1.86 0 0 1-1.31 1 .48.48 0 0 1-.49-.47 6.52 6.52 0 0 1 0-.82v-8.57h-2.14V35a5.79 5.79 0 0 0 .19 1.71 1.26 1.26 0 0 0 1.36.87 3.43 3.43 0 0 0 2.39-1.43v1.25zm10.05-3.47v-4.6A8.33 8.33 0 0 0 24 27a1.63 1.63 0 0 0-1.67-1.31A2.82 2.82 0 0 0 20.16 27v-5.1h-2.08v15.5h2.09v-1.13a2.91 2.91 0 0 0 2.18 1.31A1.62 1.62 0 0 0 24 36.27a8.61 8.61 0 0 0 .22-2.35zm7.92-.24v-.3H30a11.6 11.6 0 0 1 0 1.43.9.9 0 0 1-.94.85q-1.08 0-1.08-1.61V32h4.19v-2.41a4.65 4.65 0 0 0-.66-2.72 3.2 3.2 0 0 0-5 0 4.52 4.52 0 0 0-.66 2.72v4.05a4.4 4.4 0 0 0 .66 2.72 3 3 0 0 0 2.49 1.2 2.9 2.9 0 0 0 3-2.51 10.31 10.31 0 0 0 .09-1.36zM17.89 12.3V7.38q0-1.61-1-1.61t-1 1.61v4.92q0 1.64 1 1.64t1-1.64zm16.85 17.6a40.6 40.6 0 0 1-.61 8.2 4.45 4.45 0 0 1-1.36 2.32 4.1 4.1 0 0 1-2.39 1.08 125.31 125.31 0 0 1-13 .49 125.31 125.31 0 0 1-13-.49A4.15 4.15 0 0 1 2 40.42 4.28 4.28 0 0 1 .63 38.1 39.76 39.76 0 0 1 0 29.9a40.6 40.6 0 0 1 .61-8.2A4.45 4.45 0 0 1 2 19.37a4.25 4.25 0 0 1 2.41-1.1q4.29-.47 13-.47t13 .47a4.4 4.4 0 0 1 3.75 3.42 39.76 39.76 0 0 1 .58 8.21zM11.35 0h2.39l-2.83 9.35v6.35H8.57V9.35a39.68 39.68 0 0 0-1.43-5Q6.27 2 5.61 0H8.1l1.67 6.16zM20 7.8v4.1a4.59 4.59 0 0 1-.66 2.76 2.88 2.88 0 0 1-2.49 1.19 2.9 2.9 0 0 1-2.46-1.19 4.68 4.68 0 0 1-.66-2.76V7.8a4.59 4.59 0 0 1 .66-2.74 2.9 2.9 0 0 1 2.46-1.19 2.88 2.88 0 0 1 2.49 1.19A4.59 4.59 0 0 1 20 7.8zM27.87 4v11.7h-2.13v-1.27a3.37 3.37 0 0 1-2.41 1.45A1.31 1.31 0 0 1 22 15a6 6 0 0 1-.19-1.76V4h2.13v8.6a6.14 6.14 0 0 0 0 .82.49.49 0 0 0 .47.52 1.87 1.87 0 0 0 1.31-1V4h2.16z"/></svg></svg>